<mxfile host="65bd71144e">
    <diagram id="s5NGnHYuqPs6r2TMpPu3" name="システム構成">
        <mxGraphModel dx="1018" dy="433" grid="1" gridSize="10" guides="1" tooltips="1" connect="1" arrows="1" fold="1" page="1" pageScale="1" pageWidth="827" pageHeight="1169" background="#FFFFFF" math="0" shadow="0">
            <root>
                <mxCell id="0"/>
                <mxCell id="1" parent="0"/>
                <mxCell id="2" value="AWS Cloud" style="points=[[0,0],[0.25,0],[0.5,0],[0.75,0],[1,0],[1,0.25],[1,0.5],[1,0.75],[1,1],[0.75,1],[0.5,1],[0.25,1],[0,1],[0,0.75],[0,0.5],[0,0.25]];outlineConnect=0;gradientColor=none;html=1;whiteSpace=wrap;fontSize=12;fontStyle=0;container=1;pointerEvents=0;collapsible=0;recursiveResize=0;shape=mxgraph.aws4.group;grIcon=mxgraph.aws4.group_aws_cloud_alt;strokeColor=#232F3E;fillColor=none;verticalAlign=top;align=left;spacingLeft=30;fontColor=#232F3E;dashed=0;" parent="1" vertex="1">
                    <mxGeometry x="40" y="40" width="1310" height="790" as="geometry"/>
                </mxCell>
                <mxCell id="4" value="VPC" style="points=[[0,0],[0.25,0],[0.5,0],[0.75,0],[1,0],[1,0.25],[1,0.5],[1,0.75],[1,1],[0.75,1],[0.5,1],[0.25,1],[0,1],[0,0.75],[0,0.5],[0,0.25]];outlineConnect=0;gradientColor=none;html=1;whiteSpace=wrap;fontSize=12;fontStyle=0;container=1;pointerEvents=0;collapsible=0;recursiveResize=0;shape=mxgraph.aws4.group;grIcon=mxgraph.aws4.group_vpc;strokeColor=#248814;fillColor=none;verticalAlign=top;align=left;spacingLeft=30;fontColor=#AAB7B8;dashed=0;" parent="2" vertex="1">
                    <mxGeometry x="50" y="40" width="1130" height="680" as="geometry"/>
                </mxCell>
                <mxCell id="16" value="Availability Zone" style="fillColor=none;strokeColor=#147EBA;dashed=1;verticalAlign=top;fontStyle=0;fontColor=#147EBA;" parent="4" vertex="1">
                    <mxGeometry x="70" y="80" width="460" height="580" as="geometry"/>
                </mxCell>
                <mxCell id="26" value="Private subnet" style="points=[[0,0],[0.25,0],[0.5,0],[0.75,0],[1,0],[1,0.25],[1,0.5],[1,0.75],[1,1],[0.75,1],[0.5,1],[0.25,1],[0,1],[0,0.75],[0,0.5],[0,0.25]];outlineConnect=0;gradientColor=none;html=1;whiteSpace=wrap;fontSize=12;fontStyle=0;container=1;pointerEvents=0;collapsible=0;recursiveResize=0;shape=mxgraph.aws4.group;grIcon=mxgraph.aws4.group_security_group;grStroke=0;strokeColor=#147EBA;fillColor=#E6F2F8;verticalAlign=top;align=left;spacingLeft=30;fontColor=#147EBA;dashed=0;" parent="4" vertex="1">
                    <mxGeometry x="110" y="339" width="930" height="245" as="geometry"/>
                </mxCell>
                <mxCell id="24" value="Public subnet" style="points=[[0,0],[0.25,0],[0.5,0],[0.75,0],[1,0],[1,0.25],[1,0.5],[1,0.75],[1,1],[0.75,1],[0.5,1],[0.25,1],[0,1],[0,0.75],[0,0.5],[0,0.25]];outlineConnect=0;gradientColor=none;html=1;whiteSpace=wrap;fontSize=12;fontStyle=0;container=1;pointerEvents=0;collapsible=0;recursiveResize=0;shape=mxgraph.aws4.group;grIcon=mxgraph.aws4.group_security_group;grStroke=0;strokeColor=#248814;fillColor=#E9F3E6;verticalAlign=top;align=left;spacingLeft=30;fontColor=#248814;dashed=0;" parent="4" vertex="1">
                    <mxGeometry x="110" y="149" width="930" height="139" as="geometry"/>
                </mxCell>
                <mxCell id="28" value="" style="sketch=0;outlineConnect=0;fontColor=#232F3E;gradientColor=none;fillColor=#4D27AA;strokeColor=none;dashed=0;verticalLabelPosition=bottom;verticalAlign=top;align=center;html=1;fontSize=12;fontStyle=0;aspect=fixed;pointerEvents=1;shape=mxgraph.aws4.application_load_balancer;" parent="24" vertex="1">
                    <mxGeometry x="432" y="31" width="78" height="78" as="geometry"/>
                </mxCell>
                <mxCell id="70" value="AWS Application Load Balancer" style="text;html=1;strokeColor=none;fillColor=none;align=center;verticalAlign=middle;whiteSpace=wrap;rounded=0;" parent="24" vertex="1">
                    <mxGeometry x="400" y="109" width="180" height="30" as="geometry"/>
                </mxCell>
                <mxCell id="34" value="Availability Zone" style="fillColor=none;strokeColor=#147EBA;dashed=1;verticalAlign=top;fontStyle=0;fontColor=#147EBA;" parent="4" vertex="1">
                    <mxGeometry x="620" y="80" width="460" height="580" as="geometry"/>
                </mxCell>
                <mxCell id="32" value="" style="fillColor=none;strokeColor=#FFB366;dashed=1;verticalAlign=top;fontStyle=0;fontColor=#5A6C86;" parent="4" vertex="1">
                    <mxGeometry x="140" y="381.5" width="820" height="192.5" as="geometry"/>
                </mxCell>
                <mxCell id="35" value="" style="fillColor=none;strokeColor=#FFB366;dashed=1;verticalAlign=top;fontStyle=0;fontColor=#5A6C86;" parent="4" vertex="1">
                    <mxGeometry x="240" y="394" width="186" height="160" as="geometry"/>
                </mxCell>
                <mxCell id="39" value="" style="group" parent="4" vertex="1" connectable="0">
                    <mxGeometry x="303" y="414" width="60" height="50" as="geometry"/>
                </mxCell>
                <mxCell id="37" value="" style="sketch=0;outlineConnect=0;fontColor=#232F3E;gradientColor=none;fillColor=#D45B07;strokeColor=none;dashed=0;verticalLabelPosition=bottom;verticalAlign=top;align=center;html=1;fontSize=12;fontStyle=0;aspect=fixed;pointerEvents=1;shape=mxgraph.aws4.container_1;" parent="39" vertex="1">
                    <mxGeometry x="6" width="48" height="31" as="geometry"/>
                </mxCell>
                <mxCell id="38" value="Nginx" style="text;html=1;strokeColor=none;fillColor=none;align=center;verticalAlign=middle;whiteSpace=wrap;rounded=0;" parent="39" vertex="1">
                    <mxGeometry y="31" width="60" height="19" as="geometry"/>
                </mxCell>
                <mxCell id="40" value="" style="group" parent="4" vertex="1" connectable="0">
                    <mxGeometry x="303" y="485.5" width="60" height="50" as="geometry"/>
                </mxCell>
                <mxCell id="41" value="" style="sketch=0;outlineConnect=0;fontColor=#232F3E;gradientColor=none;fillColor=#D45B07;strokeColor=none;dashed=0;verticalLabelPosition=bottom;verticalAlign=top;align=center;html=1;fontSize=12;fontStyle=0;aspect=fixed;pointerEvents=1;shape=mxgraph.aws4.container_1;" parent="40" vertex="1">
                    <mxGeometry x="6" width="48" height="31" as="geometry"/>
                </mxCell>
                <mxCell id="42" value="Rails" style="text;html=1;strokeColor=none;fillColor=none;align=center;verticalAlign=middle;whiteSpace=wrap;rounded=0;" parent="40" vertex="1">
                    <mxGeometry y="31" width="60" height="19" as="geometry"/>
                </mxCell>
                <mxCell id="45" value="" style="group" parent="4" vertex="1" connectable="0">
                    <mxGeometry x="208.5" y="437.5" width="60" height="66.5" as="geometry"/>
                </mxCell>
                <mxCell id="36" value="" style="sketch=0;outlineConnect=0;fontColor=#232F3E;gradientColor=none;fillColor=#D45B07;strokeColor=none;dashed=0;verticalLabelPosition=bottom;verticalAlign=top;align=center;html=1;fontSize=12;fontStyle=0;aspect=fixed;pointerEvents=1;shape=mxgraph.aws4.ecs_task;" parent="45" vertex="1">
                    <mxGeometry x="11.5" width="37" height="48" as="geometry"/>
                </mxCell>
                <mxCell id="43" value="Task" style="text;html=1;strokeColor=none;fillColor=none;align=center;verticalAlign=middle;whiteSpace=wrap;rounded=0;" parent="45" vertex="1">
                    <mxGeometry y="48" width="60" height="18.5" as="geometry"/>
                </mxCell>
                <mxCell id="46" value="" style="group" parent="4" vertex="1" connectable="0">
                    <mxGeometry x="140" y="381.5" width="60" height="66.75" as="geometry"/>
                </mxCell>
                <mxCell id="31" value="" style="sketch=0;outlineConnect=0;fontColor=#232F3E;gradientColor=none;fillColor=#D45B07;strokeColor=none;dashed=0;verticalLabelPosition=bottom;verticalAlign=top;align=center;html=1;fontSize=12;fontStyle=0;aspect=fixed;pointerEvents=1;shape=mxgraph.aws4.ecs_service;" parent="46" vertex="1">
                    <mxGeometry width="39" height="48" as="geometry"/>
                </mxCell>
                <mxCell id="44" value="Service" style="text;html=1;strokeColor=none;fillColor=none;align=center;verticalAlign=middle;whiteSpace=wrap;rounded=0;" parent="46" vertex="1">
                    <mxGeometry y="48.25" width="60" height="18.5" as="geometry"/>
                </mxCell>
                <mxCell id="48" value="" style="fillColor=none;strokeColor=#FFB366;dashed=1;verticalAlign=top;fontStyle=0;fontColor=#5A6C86;" parent="4" vertex="1">
                    <mxGeometry x="721.5" y="397.75" width="186" height="160" as="geometry"/>
                </mxCell>
                <mxCell id="49" value="" style="group" parent="4" vertex="1" connectable="0">
                    <mxGeometry x="784.5" y="417.75" width="60" height="50" as="geometry"/>
                </mxCell>
                <mxCell id="50" value="" style="sketch=0;outlineConnect=0;fontColor=#232F3E;gradientColor=none;fillColor=#D45B07;strokeColor=none;dashed=0;verticalLabelPosition=bottom;verticalAlign=top;align=center;html=1;fontSize=12;fontStyle=0;aspect=fixed;pointerEvents=1;shape=mxgraph.aws4.container_1;" parent="49" vertex="1">
                    <mxGeometry x="6" width="48" height="31" as="geometry"/>
                </mxCell>
                <mxCell id="51" value="Nginx" style="text;html=1;strokeColor=none;fillColor=none;align=center;verticalAlign=middle;whiteSpace=wrap;rounded=0;" parent="49" vertex="1">
                    <mxGeometry y="31" width="60" height="19" as="geometry"/>
                </mxCell>
                <mxCell id="52" value="" style="group" parent="4" vertex="1" connectable="0">
                    <mxGeometry x="784.5" y="489.25" width="60" height="50" as="geometry"/>
                </mxCell>
                <mxCell id="53" value="" style="sketch=0;outlineConnect=0;fontColor=#232F3E;gradientColor=none;fillColor=#D45B07;strokeColor=none;dashed=0;verticalLabelPosition=bottom;verticalAlign=top;align=center;html=1;fontSize=12;fontStyle=0;aspect=fixed;pointerEvents=1;shape=mxgraph.aws4.container_1;" parent="52" vertex="1">
                    <mxGeometry x="6" width="48" height="31" as="geometry"/>
                </mxCell>
                <mxCell id="54" value="Rails" style="text;html=1;strokeColor=none;fillColor=none;align=center;verticalAlign=middle;whiteSpace=wrap;rounded=0;" parent="52" vertex="1">
                    <mxGeometry y="31" width="60" height="19" as="geometry"/>
                </mxCell>
                <mxCell id="55" value="" style="group" parent="4" vertex="1" connectable="0">
                    <mxGeometry x="690" y="441.25" width="60" height="66.5" as="geometry"/>
                </mxCell>
                <mxCell id="56" value="" style="sketch=0;outlineConnect=0;fontColor=#232F3E;gradientColor=none;fillColor=#D45B07;strokeColor=none;dashed=0;verticalLabelPosition=bottom;verticalAlign=top;align=center;html=1;fontSize=12;fontStyle=0;aspect=fixed;pointerEvents=1;shape=mxgraph.aws4.ecs_task;" parent="55" vertex="1">
                    <mxGeometry x="11.5" width="37" height="48" as="geometry"/>
                </mxCell>
                <mxCell id="57" value="Task" style="text;html=1;strokeColor=none;fillColor=none;align=center;verticalAlign=middle;whiteSpace=wrap;rounded=0;" parent="55" vertex="1">
                    <mxGeometry y="48" width="60" height="18.5" as="geometry"/>
                </mxCell>
                <mxCell id="63" value="" style="group" parent="4" vertex="1" connectable="0">
                    <mxGeometry x="530" y="457.37" width="93" height="104.75" as="geometry"/>
                </mxCell>
                <mxCell id="58" value="" style="sketch=0;points=[[0,0,0],[0.25,0,0],[0.5,0,0],[0.75,0,0],[1,0,0],[0,1,0],[0.25,1,0],[0.5,1,0],[0.75,1,0],[1,1,0],[0,0.25,0],[0,0.5,0],[0,0.75,0],[1,0.25,0],[1,0.5,0],[1,0.75,0]];outlineConnect=0;fontColor=#232F3E;gradientColor=#F78E04;gradientDirection=north;fillColor=#D05C17;strokeColor=#ffffff;dashed=0;verticalLabelPosition=bottom;verticalAlign=top;align=center;html=1;fontSize=12;fontStyle=0;aspect=fixed;shape=mxgraph.aws4.resourceIcon;resIcon=mxgraph.aws4.fargate;" parent="63" vertex="1">
                    <mxGeometry width="76.5" height="76.5" as="geometry"/>
                </mxCell>
                <mxCell id="59" value="AWS Fargate" style="text;html=1;strokeColor=none;fillColor=none;align=center;verticalAlign=middle;whiteSpace=wrap;rounded=0;" parent="63" vertex="1">
                    <mxGeometry y="76.5" width="93" height="28.25" as="geometry"/>
                </mxCell>
                <mxCell id="91" value="" style="edgeStyle=none;html=1;" edge="1" parent="4">
                    <mxGeometry relative="1" as="geometry">
                        <mxPoint x="814.1020408163265" y="618" as="sourcePoint"/>
                        <mxPoint x="814.1020408163265" y="618" as="targetPoint"/>
                    </mxGeometry>
                </mxCell>
                <mxCell id="73" value="" style="edgeStyle=orthogonalEdgeStyle;html=1;endArrow=block;elbow=vertical;startArrow=none;endFill=1;strokeColor=#545B64;rounded=0;" parent="4" target="37" edge="1">
                    <mxGeometry width="100" relative="1" as="geometry">
                        <mxPoint x="581" y="324" as="sourcePoint"/>
                        <mxPoint x="576" y="441.2508863434921" as="targetPoint"/>
                        <Array as="points">
                            <mxPoint x="581" y="364"/>
                            <mxPoint x="333" y="364"/>
                        </Array>
                    </mxGeometry>
                </mxCell>
                <mxCell id="75" value="" style="edgeStyle=orthogonalEdgeStyle;html=1;endArrow=block;elbow=vertical;startArrow=none;endFill=1;strokeColor=#545B64;rounded=0;" parent="4" source="70" target="50" edge="1">
                    <mxGeometry width="100" relative="1" as="geometry">
                        <mxPoint x="650" y="394" as="sourcePoint"/>
                        <mxPoint x="750" y="394" as="targetPoint"/>
                        <Array as="points">
                            <mxPoint x="580" y="364"/>
                            <mxPoint x="815" y="364"/>
                        </Array>
                    </mxGeometry>
                </mxCell>
                <mxCell id="76" value="" style="edgeStyle=orthogonalEdgeStyle;html=1;endArrow=none;elbow=vertical;startArrow=block;startFill=1;strokeColor=#545B64;rounded=0;entryX=0.5;entryY=0;entryDx=0;entryDy=0;" parent="4" source="41" target="38" edge="1">
                    <mxGeometry width="100" relative="1" as="geometry">
                        <mxPoint x="283" y="474" as="sourcePoint"/>
                        <mxPoint x="383" y="474" as="targetPoint"/>
                        <Array as="points">
                            <mxPoint x="333" y="455"/>
                            <mxPoint x="333" y="455"/>
                        </Array>
                    </mxGeometry>
                </mxCell>
                <mxCell id="92" value="" style="sketch=0;points=[[0,0,0],[0.25,0,0],[0.5,0,0],[0.75,0,0],[1,0,0],[0,1,0],[0.25,1,0],[0.5,1,0],[0.75,1,0],[1,1,0],[0,0.25,0],[0,0.5,0],[0,0.75,0],[1,0.25,0],[1,0.5,0],[1,0.75,0]];outlineConnect=0;fontColor=#232F3E;gradientColor=#F54749;gradientDirection=north;fillColor=#C7131F;strokeColor=#ffffff;dashed=0;verticalLabelPosition=bottom;verticalAlign=top;align=center;html=1;fontSize=12;fontStyle=0;aspect=fixed;shape=mxgraph.aws4.resourceIcon;resIcon=mxgraph.aws4.cognito;" vertex="1" parent="4">
                    <mxGeometry x="542" y="60" width="78" height="78" as="geometry"/>
                </mxCell>
                <mxCell id="72" value="" style="edgeStyle=orthogonalEdgeStyle;html=1;endArrow=block;elbow=vertical;startArrow=none;endFill=1;strokeColor=#545B64;rounded=0;" parent="4" source="92" target="28" edge="1">
                    <mxGeometry width="100" relative="1" as="geometry">
                        <mxPoint x="560" y="70" as="sourcePoint"/>
                        <mxPoint x="660" y="70" as="targetPoint"/>
                    </mxGeometry>
                </mxCell>
                <mxCell id="11" value="" style="sketch=0;outlineConnect=0;fontColor=#232F3E;gradientColor=none;fillColor=#4D27AA;strokeColor=none;dashed=0;verticalLabelPosition=bottom;verticalAlign=top;align=center;html=1;fontSize=12;fontStyle=0;aspect=fixed;pointerEvents=1;shape=mxgraph.aws4.internet_gateway;" parent="2" vertex="1">
                    <mxGeometry x="592" y="10" width="78" height="78" as="geometry"/>
                </mxCell>
                <mxCell id="93" value="" style="edgeStyle=orthogonalEdgeStyle;html=1;endArrow=none;elbow=vertical;startArrow=none;endFill=1;strokeColor=#545B64;rounded=0;" edge="1" parent="2" source="11" target="92">
                    <mxGeometry width="100" relative="1" as="geometry">
                        <mxPoint x="670.9999999999998" y="127.99911181963103" as="sourcePoint"/>
                        <mxPoint x="670.9999999999998" y="260.0008863434922" as="targetPoint"/>
                    </mxGeometry>
                </mxCell>
                <mxCell id="79" value="" style="edgeStyle=orthogonalEdgeStyle;html=1;endArrow=none;elbow=vertical;startArrow=block;startFill=1;strokeColor=#545B64;rounded=0;entryX=0.5;entryY=0;entryDx=0;entryDy=0;" parent="1" edge="1">
                    <mxGeometry width="100" relative="1" as="geometry">
                        <mxPoint x="906" y="570.5903756936232" as="sourcePoint"/>
                        <mxPoint x="906" y="530" as="targetPoint"/>
                        <Array as="points">
                            <mxPoint x="906" y="540"/>
                            <mxPoint x="906" y="540"/>
                        </Array>
                    </mxGeometry>
                </mxCell>
            </root>
        </mxGraphModel>
    </diagram>
</mxfile>